<svg xmlns="http://www.w3.org/2000/svg" viewBox="0 0 745 494"><defs><style>.cls-1{fill:#1890ff;}</style></defs><title>logo_block</title><path class="cls-1" d="M142.78,444.16q0,19.2-14.06,28.8t-36.31,9.6H41.47V353.29H89.18q21.48,0,34.69,9T137.08,390q0,11.79-12.92,23.19a42.8,42.8,0,0,1,13.59,13.12A32.26,32.26,0,0,1,142.78,444.16Zm-36.68-53q0-13.87-19.39-13.87H71.12v26.8H84.05q9.69,0,15.87-3.23T106.1,391.12ZM112,444q0-7.61-5.23-11.88T92.6,427.81H71.12v31H91.84q9.12,0,14.64-3.89A12.63,12.63,0,0,0,112,444Z"/><path class="cls-1" d="M188.21,361.28a15.7,15.7,0,0,1-4.84,11.5,15.94,15.94,0,0,1-11.69,4.85,16.56,16.56,0,0,1-16.35-16.35,15.9,15.9,0,0,1,4.85-11.69,15.71,15.71,0,0,1,11.5-4.85,16.54,16.54,0,0,1,16.53,16.54Zm-1.52,29.08v92.2H156.85v-92.2Z"/><path class="cls-1" d="M300.36,435.6q0,23-12.83,36t-35.07,13q-12,0-23.57-8.18l-5.32,6.09H208.36V350.44L238,348.35v42.39a38.7,38.7,0,0,1,15.59-3.23q21.48,0,34.12,12.55T300.36,435.6Zm-30.6.19q0-11.4-5.13-17.86t-14.26-6.47q-5.9,0-12.36,4.37v41.06a25.34,25.34,0,0,0,13.12,4,16,16,0,0,0,13.5-6.94Q269.76,447,269.76,435.79Z"/><path class="cls-1" d="M346.17,348.35V482.56H316.52V350.44Z"/><path class="cls-1" d="M399.4,361.28a15.71,15.71,0,0,1-4.85,11.5,15.94,15.94,0,0,1-11.69,4.85,16.56,16.56,0,0,1-16.35-16.35,15.94,15.94,0,0,1,4.85-11.69,15.71,15.71,0,0,1,11.5-4.85,16.56,16.56,0,0,1,16.54,16.54Zm-1.52,29.08v92.2H368v-92.2Z"/><path class="cls-1" d="M505.66,482.56H490.45l-5.51-7.42a49.55,49.55,0,0,1-12.36,6.94,37.78,37.78,0,0,1-13.69,2.57q-21.48,0-34.21-12.55t-12.74-35.55q0-23,12.93-36t35.16-13a36.53,36.53,0,0,1,15.78,3.8V350.44l29.85-2.09Zm-43.53-21.67q6.27,0,13.68-5.33V416.21a25,25,0,0,0-14.45-4.75,16.06,16.06,0,0,0-13.49,6.85q-5.13,6.84-5.13,18.05,0,11.42,5.13,18T462.13,460.89Z"/><path class="cls-1" d="M569.9,387.51q14.07,0,23.77,6.46a40,40,0,0,1,14.54,17.3,59,59,0,0,1,4.84,24.33v8.94H553.94q4.17,16.15,24.33,16.16,13.11,0,26-7.23l8.36,20.72a52.06,52.06,0,0,1-15.87,7.61,70.89,70.89,0,0,1-20.62,2.85q-25.29,0-39.83-12.74t-14.54-35.36q0-14.82,6.08-25.94a42.11,42.11,0,0,1,17-17.11A51.14,51.14,0,0,1,569.9,387.51ZM569.14,412a14.34,14.34,0,0,0-10.55,4.28,18.15,18.15,0,0,0-5,11.31h31.17a21.43,21.43,0,0,0-5-11.31Q575.79,412,569.14,412Z"/><path class="cls-1" d="M717.22,390.36l-36.31,92.2h-27l-33.84-87.44,28.14-8.18L668,444.35l19-54Z"/><path class="cls-1" d="M274.31,17a33.83,33.83,0,0,0-33.59,32.07v.1a9.68,9.68,0,0,0-.09,1.53V259a33.81,33.81,0,0,0,33.68,33.69H409A33.81,33.81,0,0,0,442.72,259v-6.31a56.57,56.57,0,0,0,5.84-2.49l39.71,39.72a9.19,9.19,0,1,0,13.83-12.1,7.93,7.93,0,0,0-.82-.82l-37.6-37.62a55,55,0,0,0-21-90.44V75.19a9.19,9.19,0,0,0-1-4.12c-6.75-13.59-7.42-26,0-40.77A9.2,9.2,0,0,0,433.53,17Zm0,18.38H420.43c-.52,2-.84,4.11-1.15,6.13H338.61a7.69,7.69,0,0,0-1,0,9.2,9.2,0,0,0,1,18.37h80.57A61.07,61.07,0,0,0,420.43,66H274.31a15.32,15.32,0,0,1,0-30.63ZM259,80.74a33.27,33.27,0,0,0,15.31,3.64h150v61.25a55.13,55.13,0,0,0,0,110.26V259A15.08,15.08,0,0,1,409,274.27H274.31A15.08,15.08,0,0,1,259,259V80.74ZM424.35,164a36.75,36.75,0,0,1,.28,73.5h-.28A36.61,36.61,0,0,1,387.6,201v-.28A36.61,36.61,0,0,1,424.07,164Z"/><path class="cls-1" d="M425.56,182l-.05.25-8,35.06-.3,1.35h4.93l.05-.25,8-35.06.3-1.35Zm-11.26,4.78-.65.5-14.34,11.16-.95.74v2.3l.95.74,14.34,11.16.65.5v-6l-9.66-7.52,9.66-7.52v-6Zm19.13,0v6l9.66,7.52-9.66,7.52v6l.64-.5,14.35-11.16.94-.75v-2.29l-.94-.75-14.35-11.15-.64-.5Z"/></svg>